<svg xmlns="http://www.w3.org/2000/svg" viewBox="0 0 50 50"><defs><style>.cls-1{fill:#fff;}.cls-2{fill:none;}</style></defs><g id="Layer_2" data-name="Layer 2"><g id="Layer_1-2" data-name="Layer 1"><path id="call" class="cls-1" d="M38.45,37.61a.8.8,0,0,1-.79.79A26.09,26.09,0,0,1,11.6,12.34a.8.8,0,0,1,.79-.79h5.53a.8.8,0,0,1,.79.79,18.74,18.74,0,0,0,.93,5.88.88.88,0,0,1-.27.9l-2.87,3.8a.8.8,0,0,0-.07.84,20.67,20.67,0,0,0,9.81,9.81.78.78,0,0,0,.84-.07L31,30.56a.77.77,0,0,1,.8-.19,18.86,18.86,0,0,0,5.89.94.79.79,0,0,1,.79.79Z"/><rect class="cls-2" width="50" height="50"/></g></g></svg>