<svg xmlns="http://www.w3.org/2000/svg" viewBox="0 0 50 50"><defs><style>.cls-1{fill:#fff;}.cls-2{fill:none;}</style></defs><g id="Layer_2" data-name="Layer 2"><g id="Layer_1-2" data-name="Layer 1"><g id="emailbox"><path class="cls-1" d="M31,24.5H19.36a1,1,0,0,1-1-.89,1,1,0,0,1,1-1.11H30.64a1,1,0,0,1,1,.89,1,1,0,0,1-1,1.11"/><path class="cls-1" d="M31,21.5H19.36a1,1,0,0,1-1-.89,1,1,0,0,1,1-1.11H30.64a1,1,0,0,1,1,.89,1,1,0,0,1-1,1.11"/><path class="cls-1" d="M25,17.5H19.53a1,1,0,0,1-1-.89,1,1,0,0,1,1-1.11h6a1,1,0,0,1,1,.89,1,1,0,0,1-1,1.11"/><path class="cls-1" d="M37,39.5H12.81A2.81,2.81,0,0,1,10,36.69V20.37a3,3,0,0,1,1.58-2.64l2.95-1.58a1,1,0,0,1,.94,1.77l-3,1.59a.94.94,0,0,0-.49.82V36.56a.94.94,0,0,0,.94.94H37.06a.94.94,0,0,0,.94-.94V21.45a.94.94,0,0,0-.51-.83l-3-1.48a.91.91,0,0,1-.41-1.27,1,1,0,0,1,1.35-.38l3,1.47A2.8,2.8,0,0,1,40,21.44V36.5a2.81,2.81,0,0,1-2.81,2.81"/><path class="cls-1" d="M25,31.79a3.4,3.4,0,0,1-1.59-.39L10.5,24.66A.94.94,0,0,1,11.37,23l12.9,6.74a1.6,1.6,0,0,0,1.46,0L38.63,23a.94.94,0,0,1,.87,1.66L26.6,31.4a3.5,3.5,0,0,1-1.6.39"/><path class="cls-1" d="M34.94,26.73a.94.94,0,0,1-.94-.94V14.06a1.56,1.56,0,0,0-1.56-1.56H17.56A1.56,1.56,0,0,0,16,14.06V25.88a1,1,0,0,1-2,0V13.94a3.44,3.44,0,0,1,3.44-3.44H32.56A3.44,3.44,0,0,1,36,13.94V25.79a.94.94,0,0,1-.94.94"/><rect class="cls-2" width="50" height="50"/></g></g></g></svg>