<svg xmlns="http://www.w3.org/2000/svg" viewBox="0 0 50 50"><defs><style>.cls-1{fill:#fff;}.cls-2{fill:none;}</style></defs><g id="Layer_2" data-name="Layer 2"><g id="Layer_1-2" data-name="Layer 1"><g id="social_icon" data-name="social icon"><path class="cls-1" d="M34.82,12.5H15.18a2.68,2.68,0,0,0-2.68,2.68V34.82a2.68,2.68,0,0,0,2.68,2.68h7.66V29H19.32V25h3.52V22c0-3.47,2.06-5.38,5.23-5.38a21.2,21.2,0,0,1,3.09.27v3.4H29.42a2,2,0,0,0-2.26,2.16V25H31l-.61,4H27.16v8.5h7.66a2.68,2.68,0,0,0,2.68-2.68V15.18a2.68,2.68,0,0,0-2.68-2.68"/></g><rect class="cls-2" width="50" height="50"/></g></g></svg>