<svg xmlns="http://www.w3.org/2000/svg" viewBox="0 0 50 50"><defs><style>.cls-1{fill:#fff;}.cls-2{fill:none;}</style></defs><g id="Layer_2" data-name="Layer 2"><g id="Layer_1-2" data-name="Layer 1"><g id="social_icon" data-name="social icon"><path class="cls-1" d="M28.43,23.57a8.08,8.08,0,0,1,.17,1.66C28.6,30.94,24.77,35,19,35a10,10,0,0,1,0-20,9.56,9.56,0,0,1,6.69,2.61L23,20.23a5.65,5.65,0,0,0-4-1.53,6.3,6.3,0,0,0,0,12.6A5.41,5.41,0,0,0,24.68,27H19V23.57Zm9.64.33V21H35.16V23.9h-2.9v2.92h2.9v2.89h2.91V26.82H41V23.9Z"/></g><rect class="cls-2" width="50" height="50"/></g></g></svg>