<svg xmlns="http://www.w3.org/2000/svg" viewBox="0 0 50 50"><defs><style>.cls-1{fill:#fff;}.cls-2{fill:none;}</style></defs><g id="Layer_2" data-name="Layer 2"><g id="Layer_1-2" data-name="Layer 1"><g id="social_icon" data-name="social icon"><path class="cls-1" d="M35.71,12.5H14.28a1.79,1.79,0,0,0-1.78,1.8V35.7a1.79,1.79,0,0,0,1.78,1.8H35.71a1.8,1.8,0,0,0,1.79-1.8V14.3a1.8,1.8,0,0,0-1.79-1.8M20.06,33.93H16.35V22h3.71V33.93ZM18.2,20.37a2.15,2.15,0,1,1,2.15-2.15,2.15,2.15,0,0,1-2.15,2.15M34,33.93H30.24v-5.8c0-1.39,0-3.17-1.93-3.17S26.09,26.47,26.09,28v5.91H22.38V22h3.56v1.63h0A3.9,3.9,0,0,1,29.5,21.7c3.75,0,4.45,2.47,4.45,5.69Z"/></g><rect class="cls-2" width="50" height="50"/></g></g></svg>