<svg xmlns="http://www.w3.org/2000/svg" viewBox="0 0 50 50"><defs><style>.cls-1{fill:#fff;}.cls-2{fill:none;}</style></defs><g id="Layer_2" data-name="Layer 2"><g id="Layer_1-2" data-name="Layer 1"><g id="social_icon" data-name="social icon"><path class="cls-1" d="M34.93,19.91c0,.22,0,.44,0,.67A14.59,14.59,0,0,1,12.5,32.85a10.08,10.08,0,0,0,1.24.07,10.27,10.27,0,0,0,6.36-2.19,5.14,5.14,0,0,1-4.79-3.56,6.14,6.14,0,0,0,1,.08,5.35,5.35,0,0,0,1.34-.17,5.14,5.14,0,0,1-4.11-5V22a5.2,5.2,0,0,0,2.32.65,5.12,5.12,0,0,1-2.28-4.27,5,5,0,0,1,.7-2.59,14.54,14.54,0,0,0,10.56,5.36A5.67,5.67,0,0,1,24.68,20a5.13,5.13,0,0,1,8.87-3.5,10.14,10.14,0,0,0,3.25-1.24,5.09,5.09,0,0,1-2.25,2.82,10.13,10.13,0,0,0,3-.79,11.15,11.15,0,0,1-2.57,2.65"/></g><rect class="cls-2" width="50" height="50"/></g></g></svg>